%FSLAX25Y25*%
%MOIN*%
G70*
G01*
G75*
G04 Layer_Color=16711935*
%ADD10R,0.05118X0.03937*%
%ADD11R,0.04724X0.05512*%
%ADD12R,0.04724X0.05512*%
%ADD13R,0.02362X0.06102*%
%ADD14O,0.02362X0.06102*%
%ADD15R,0.03937X0.05118*%
%ADD16R,0.04724X0.05118*%
%ADD17R,0.00984X0.05709*%
%ADD18R,0.05709X0.00984*%
%ADD19O,0.05709X0.00984*%
%ADD20C,0.01000*%
%ADD21C,0.02000*%
%ADD22C,0.05000*%
%ADD23C,0.09843*%
%ADD24R,0.05906X0.05906*%
%ADD25C,0.05906*%
%ADD26C,0.07087*%
%ADD27R,0.07087X0.07087*%
%ADD28C,0.18740*%
%ADD29C,0.06299*%
%ADD30C,0.05315*%
%ADD31R,0.05315X0.05315*%
%ADD32C,0.05000*%
%ADD33C,0.19685*%
%ADD34R,0.10827X0.08071*%
%ADD35R,0.07717X0.08032*%
%ADD36R,0.03543X0.08465*%
%ADD37R,0.03543X0.08465*%
%ADD38R,0.12795X0.12402*%
%ADD39R,0.09449X0.12992*%
%ADD40R,0.13780X0.10236*%
%ADD41C,0.03500*%
%ADD42C,0.00787*%
%ADD43R,0.05918X0.04737*%
%ADD44R,0.05524X0.06312*%
%ADD45R,0.05524X0.06312*%
%ADD46R,0.03162X0.06902*%
%ADD47O,0.03162X0.06902*%
%ADD48R,0.04737X0.05918*%
%ADD49R,0.05524X0.05918*%
%ADD50R,0.01784X0.06509*%
%ADD51R,0.06509X0.01784*%
%ADD52O,0.06509X0.01784*%
%ADD53C,0.10642*%
%ADD54R,0.06706X0.06706*%
%ADD55C,0.06706*%
%ADD56C,0.07887*%
%ADD57R,0.07887X0.07887*%
%ADD58C,0.19540*%
%ADD59C,0.07099*%
%ADD60C,0.06115*%
%ADD61R,0.06115X0.06115*%
%ADD62C,0.20485*%
%ADD63R,0.11627X0.08871*%
%ADD64R,0.08517X0.08832*%
%ADD65R,0.04343X0.09265*%
%ADD66R,0.04343X0.09265*%
%ADD67R,0.13595X0.13202*%
%ADD68R,0.10249X0.13792*%
%ADD69R,0.14579X0.11036*%
D32*
X664000Y470000D02*
D03*
X717500Y470500D02*
D03*
X705500Y442500D02*
D03*
X611000Y471000D02*
D03*
X683500Y453000D02*
D03*
X664000Y444000D02*
D03*
D43*
X677000Y444063D02*
D03*
Y451937D02*
D03*
X670000Y444063D02*
D03*
Y451937D02*
D03*
D48*
X655937Y454000D02*
D03*
X648063D02*
D03*
X639937Y549000D02*
D03*
X632063D02*
D03*
X655937Y444000D02*
D03*
X648063D02*
D03*
D53*
X714500Y511500D02*
D03*
Y536500D02*
D03*
Y549020D02*
D03*
X651980Y549020D02*
D03*
Y511500D02*
D03*
D54*
X672000Y396500D02*
D03*
D55*
Y406500D02*
D03*
D56*
X689311Y569410D02*
D03*
X683858Y580591D02*
D03*
X678406Y569410D02*
D03*
X672953Y580591D02*
D03*
X667500Y569410D02*
D03*
X662047Y580591D02*
D03*
X656595Y569410D02*
D03*
X651142Y580591D02*
D03*
D57*
X645689Y569410D02*
D03*
D58*
X618307Y575000D02*
D03*
X716693D02*
D03*
D59*
X625500Y407500D02*
D03*
X633374D02*
D03*
X641248D02*
D03*
X649122D02*
D03*
D60*
X751500Y466000D02*
D03*
X741500D02*
D03*
X751500Y456000D02*
D03*
X741500D02*
D03*
X751500Y446000D02*
D03*
X741500D02*
D03*
X751500Y436000D02*
D03*
X741500D02*
D03*
X751500Y426000D02*
D03*
X741500D02*
D03*
Y516000D02*
D03*
X751500Y506000D02*
D03*
X741500D02*
D03*
X751500Y496000D02*
D03*
X741500D02*
D03*
X751500Y486000D02*
D03*
X741500D02*
D03*
X751500Y476000D02*
D03*
X741500D02*
D03*
X594000Y466000D02*
D03*
X584000D02*
D03*
X594000Y456000D02*
D03*
X584000D02*
D03*
X594000Y446000D02*
D03*
X584000D02*
D03*
X594000Y436000D02*
D03*
X584000D02*
D03*
X594000Y426000D02*
D03*
X584000D02*
D03*
Y516000D02*
D03*
X594000Y506000D02*
D03*
X584000D02*
D03*
X594000Y496000D02*
D03*
X584000D02*
D03*
X594000Y486000D02*
D03*
X584000D02*
D03*
X594000Y476000D02*
D03*
X584000D02*
D03*
D61*
X751500Y516000D02*
D03*
X594000D02*
D03*
D62*
X746000Y570500D02*
D03*
X589000D02*
D03*
Y403500D02*
D03*
X746000D02*
D03*
D63*
X652000Y522925D02*
D03*
Y537492D02*
D03*
D64*
X701500Y552374D02*
D03*
Y566626D02*
D03*
D65*
X626000Y511583D02*
D03*
X616945D02*
D03*
D66*
X635055D02*
D03*
D67*
X626000Y536386D02*
D03*
D68*
X727508Y536500D02*
D03*
X753492D02*
D03*
D69*
X672311D02*
D03*
X698689D02*
D03*
M02*
