%FSLAX25Y25*%
%MOIN*%
G70*
G01*
G75*
G04 Layer_Color=65535*
%ADD10R,0.05118X0.03937*%
%ADD11R,0.04724X0.05512*%
%ADD12R,0.04724X0.05512*%
%ADD13R,0.02362X0.06102*%
%ADD14O,0.02362X0.06102*%
%ADD15R,0.03937X0.05118*%
%ADD16R,0.04724X0.05118*%
%ADD17R,0.00984X0.05709*%
%ADD18R,0.05709X0.00984*%
%ADD19O,0.05709X0.00984*%
%ADD20C,0.01000*%
%ADD21C,0.02000*%
%ADD22C,0.05000*%
%ADD23C,0.09843*%
%ADD24R,0.05906X0.05906*%
%ADD25C,0.05906*%
%ADD26C,0.07087*%
%ADD27R,0.07087X0.07087*%
%ADD28C,0.18740*%
%ADD29C,0.06299*%
%ADD30C,0.05315*%
%ADD31R,0.05315X0.05315*%
%ADD32C,0.05000*%
%ADD33C,0.19685*%
%ADD34R,0.10827X0.08071*%
%ADD35R,0.07717X0.08032*%
%ADD36R,0.03543X0.08465*%
%ADD37R,0.03543X0.08465*%
%ADD38R,0.12795X0.12402*%
%ADD39R,0.09449X0.12992*%
%ADD40R,0.13780X0.10236*%
%ADD41C,0.03500*%
%ADD42C,0.00787*%
D20*
X635032Y456319D02*
X638969D01*
X635032Y458681D02*
X638969D01*
X626532Y463681D02*
X630469D01*
X626532Y461319D02*
X630469D01*
X600500Y534000D02*
X604500D01*
X600500Y536000D02*
X604500D01*
Y534000D02*
Y536000D01*
X600500Y534000D02*
Y536000D01*
X643000Y492000D02*
Y494000D01*
X639000Y492000D02*
Y494000D01*
Y492000D02*
X643000D01*
X639000Y494000D02*
X643000D01*
X732819Y534531D02*
Y538469D01*
X735181Y534531D02*
Y538469D01*
X667000Y411500D02*
X677000D01*
X667000Y391500D02*
Y411500D01*
Y391500D02*
X677000D01*
Y411500D01*
X693500Y410000D02*
Y414000D01*
X691500Y410000D02*
Y414000D01*
X693500D01*
X691500Y410000D02*
X693500D01*
X697555Y398744D02*
Y404256D01*
X685350D02*
X699524D01*
Y398744D02*
Y404256D01*
X685350Y398744D02*
X699524D01*
X685350D02*
Y404256D01*
X594650Y536244D02*
Y541756D01*
X580476D02*
X594650D01*
X580476Y536244D02*
Y541756D01*
Y536244D02*
X594650D01*
X582445D02*
Y541756D01*
X670819Y499031D02*
Y502969D01*
X673181Y499031D02*
Y502969D01*
Y492031D02*
Y495968D01*
X670819Y492031D02*
Y495968D01*
Y485032D02*
Y488969D01*
X673181Y485032D02*
Y488969D01*
X656819Y493532D02*
Y497469D01*
X659181Y493532D02*
Y497469D01*
X631819Y508532D02*
Y512468D01*
X634181Y508532D02*
Y512468D01*
X708181Y459031D02*
Y462968D01*
X705819Y459031D02*
Y462968D01*
X672819Y420532D02*
Y424469D01*
X675181Y420532D02*
Y424469D01*
X636361Y468452D02*
X635771Y469042D01*
X634590D01*
X634000Y468452D01*
Y466090D01*
X634590Y465500D01*
X635771D01*
X636361Y466090D01*
X639904Y469042D02*
X638723Y468452D01*
X637542Y467271D01*
Y466090D01*
X638132Y465500D01*
X639313D01*
X639904Y466090D01*
Y466681D01*
X639313Y467271D01*
X637542D01*
X628361Y473952D02*
X627771Y474542D01*
X626590D01*
X626000Y473952D01*
Y471590D01*
X626590Y471000D01*
X627771D01*
X628361Y471590D01*
X631904Y474542D02*
X629542D01*
Y472771D01*
X630723Y473361D01*
X631313D01*
X631904Y472771D01*
Y471590D01*
X631313Y471000D01*
X630132D01*
X629542Y471590D01*
X609500Y445000D02*
X610681D01*
X610090D01*
Y448542D01*
X609500Y447952D01*
X614813Y448542D02*
X613632Y447952D01*
X612452Y446771D01*
Y445590D01*
X613042Y445000D01*
X614223D01*
X614813Y445590D01*
Y446181D01*
X614223Y446771D01*
X612452D01*
X615994Y445000D02*
Y448542D01*
X617175Y447361D01*
X618355Y448542D01*
Y445000D01*
X619536Y448542D02*
Y445000D01*
Y446771D01*
X621898D01*
Y448542D01*
Y445000D01*
X623078Y447361D02*
X625440D01*
X623078Y445000D01*
X625440D01*
X600000Y544000D02*
Y547542D01*
X601771D01*
X602361Y546952D01*
Y545771D01*
X601771Y545181D01*
X600000D01*
X601181D02*
X602361Y544000D01*
X603542Y546952D02*
X604133Y547542D01*
X605313D01*
X605904Y546952D01*
Y546361D01*
X605313Y545771D01*
X604723D01*
X605313D01*
X605904Y545181D01*
Y544590D01*
X605313Y544000D01*
X604133D01*
X603542Y544590D01*
X632000Y491500D02*
Y495042D01*
X633771D01*
X634361Y494452D01*
Y493271D01*
X633771Y492681D01*
X632000D01*
X633181D02*
X634361Y491500D01*
X635542D02*
X636723D01*
X636132D01*
Y495042D01*
X635542Y494452D01*
X684000Y531042D02*
Y528090D01*
X684590Y527500D01*
X685771D01*
X686361Y528090D01*
Y531042D01*
X687542Y530452D02*
X688132Y531042D01*
X689313D01*
X689904Y530452D01*
Y529861D01*
X689313Y529271D01*
X688723D01*
X689313D01*
X689904Y528681D01*
Y528090D01*
X689313Y527500D01*
X688132D01*
X687542Y528090D01*
X623000Y534042D02*
Y531090D01*
X623590Y530500D01*
X624771D01*
X625361Y531090D01*
Y534042D01*
X628904Y530500D02*
X626542D01*
X628904Y532861D01*
Y533452D01*
X628313Y534042D01*
X627133D01*
X626542Y533452D01*
X733861Y544952D02*
X733271Y545542D01*
X732090D01*
X731500Y544952D01*
Y542590D01*
X732090Y542000D01*
X733271D01*
X733861Y542590D01*
X735042Y544952D02*
X735633Y545542D01*
X736813D01*
X737404Y544952D01*
Y544361D01*
X736813Y543771D01*
X737404Y543181D01*
Y542590D01*
X736813Y542000D01*
X735633D01*
X735042Y542590D01*
Y543181D01*
X735633Y543771D01*
X735042Y544361D01*
Y544952D01*
X735633Y543771D02*
X736813D01*
X670861Y418042D02*
X669681D01*
X670271D01*
Y415090D01*
X669681Y414500D01*
X669090D01*
X668500Y415090D01*
X672042Y414500D02*
Y418042D01*
X673813D01*
X674404Y417452D01*
Y416271D01*
X673813Y415681D01*
X672042D01*
X675584Y414500D02*
X676765D01*
X676175D01*
Y418042D01*
X675584Y417452D01*
X687500Y479042D02*
Y476090D01*
X688090Y475500D01*
X689271D01*
X689861Y476090D01*
Y479042D01*
X691042Y475500D02*
X692223D01*
X691633D01*
Y479042D01*
X691042Y478452D01*
X702000Y410500D02*
Y414042D01*
X703771D01*
X704361Y413452D01*
Y412271D01*
X703771Y411681D01*
X702000D01*
X703181D02*
X704361Y410500D01*
X707313D02*
Y414042D01*
X705542Y412271D01*
X707904D01*
X578500Y524500D02*
Y528042D01*
X580271D01*
X580861Y527452D01*
Y526271D01*
X580271Y525681D01*
X578500D01*
X582042Y527452D02*
X582632Y528042D01*
X583813D01*
X584404Y527452D01*
Y526861D01*
X583813Y526271D01*
X583223D01*
X583813D01*
X584404Y525681D01*
Y525090D01*
X583813Y524500D01*
X582632D01*
X582042Y525090D01*
X736500Y524500D02*
Y528042D01*
X738271D01*
X738861Y527452D01*
Y526271D01*
X738271Y525681D01*
X736500D01*
X742404Y524500D02*
X740042D01*
X742404Y526861D01*
Y527452D01*
X741813Y528042D01*
X740632D01*
X740042Y527452D01*
X618100Y416200D02*
Y419742D01*
X619871D01*
X620461Y419152D01*
Y417971D01*
X619871Y417381D01*
X618100D01*
X621642Y416200D02*
X622823D01*
X622232D01*
Y419742D01*
X621642Y419152D01*
X604361Y561042D02*
X603181D01*
X603771D01*
Y558090D01*
X603181Y557500D01*
X602590D01*
X602000Y558090D01*
X605542Y557500D02*
Y561042D01*
X607313D01*
X607904Y560452D01*
Y559271D01*
X607313Y558681D01*
X605542D01*
X606723D02*
X607904Y557500D01*
X611446Y560452D02*
X610855Y561042D01*
X609675D01*
X609084Y560452D01*
Y559861D01*
X609675Y559271D01*
X610855D01*
X611446Y558681D01*
Y558090D01*
X610855Y557500D01*
X609675D01*
X609084Y558090D01*
X612627Y557500D02*
X613807D01*
X613217D01*
Y561042D01*
X612627Y560452D01*
X702000Y402542D02*
Y399000D01*
X703771D01*
X704361Y399590D01*
Y401952D01*
X703771Y402542D01*
X702000D01*
X707313Y399000D02*
Y402542D01*
X705542Y400771D01*
X707904D01*
X586000Y548042D02*
Y544500D01*
X587771D01*
X588361Y545090D01*
Y547452D01*
X587771Y548042D01*
X586000D01*
X589542Y544500D02*
X590723D01*
X590133D01*
Y548042D01*
X589542Y547452D01*
X631361Y504952D02*
X630771Y505542D01*
X629590D01*
X629000Y504952D01*
Y502590D01*
X629590Y502000D01*
X630771D01*
X631361Y502590D01*
X632542Y502000D02*
X633723D01*
X633133D01*
Y505542D01*
X632542Y504952D01*
X637855Y505542D02*
X636675Y504952D01*
X635494Y503771D01*
Y502590D01*
X636084Y502000D01*
X637265D01*
X637855Y502590D01*
Y503181D01*
X637265Y503771D01*
X635494D01*
X718361Y462452D02*
X717771Y463042D01*
X716590D01*
X716000Y462452D01*
Y460090D01*
X716590Y459500D01*
X717771D01*
X718361Y460090D01*
X719542Y459500D02*
X720723D01*
X720132D01*
Y463042D01*
X719542Y462452D01*
X722494D02*
X723084Y463042D01*
X724265D01*
X724855Y462452D01*
Y461861D01*
X724265Y461271D01*
X723675D01*
X724265D01*
X724855Y460681D01*
Y460090D01*
X724265Y459500D01*
X723084D01*
X722494Y460090D01*
X655361Y502952D02*
X654771Y503542D01*
X653590D01*
X653000Y502952D01*
Y500590D01*
X653590Y500000D01*
X654771D01*
X655361Y500590D01*
X656542Y500000D02*
X657723D01*
X657132D01*
Y503542D01*
X656542Y502952D01*
X661855Y500000D02*
X659494D01*
X661855Y502361D01*
Y502952D01*
X661265Y503542D01*
X660084D01*
X659494Y502952D01*
X685861Y423952D02*
X685271Y424542D01*
X684090D01*
X683500Y423952D01*
Y421590D01*
X684090Y421000D01*
X685271D01*
X685861Y421590D01*
X688813Y421000D02*
Y424542D01*
X687042Y422771D01*
X689404D01*
X683861Y487952D02*
X683271Y488542D01*
X682090D01*
X681500Y487952D01*
Y485590D01*
X682090Y485000D01*
X683271D01*
X683861Y485590D01*
X685042Y487952D02*
X685633Y488542D01*
X686813D01*
X687404Y487952D01*
Y487361D01*
X686813Y486771D01*
X686223D01*
X686813D01*
X687404Y486181D01*
Y485590D01*
X686813Y485000D01*
X685633D01*
X685042Y485590D01*
X684361Y501952D02*
X683771Y502542D01*
X682590D01*
X682000Y501952D01*
Y499590D01*
X682590Y499000D01*
X683771D01*
X684361Y499590D01*
X687904Y499000D02*
X685542D01*
X687904Y501361D01*
Y501952D01*
X687313Y502542D01*
X686132D01*
X685542Y501952D01*
X684361Y494952D02*
X683771Y495542D01*
X682590D01*
X682000Y494952D01*
Y492590D01*
X682590Y492000D01*
X683771D01*
X684361Y492590D01*
X685542Y492000D02*
X686723D01*
X686132D01*
Y495542D01*
X685542Y494952D01*
D42*
X616000Y530750D02*
G03*
X616000Y533250I0J1250D01*
G01*
Y527709D02*
Y530750D01*
Y533250D02*
Y536291D01*
X636000D01*
Y527709D02*
Y536291D01*
X616000Y527709D02*
X636000D01*
X681079Y439177D02*
X686039Y444138D01*
X651866Y439177D02*
X681079D01*
X651866D02*
Y473350D01*
X686039D01*
Y444138D02*
Y473350D01*
X735988Y419902D02*
X757160D01*
X735988Y522100D02*
X757160D01*
X757200Y420000D02*
Y522100D01*
X735996Y420000D02*
Y522000D01*
X578488Y419902D02*
X599660D01*
X578488Y522100D02*
X599660D01*
X599700Y420000D02*
Y522100D01*
X578496Y420000D02*
Y522000D01*
X754124Y414000D02*
X751500D01*
X754124Y416624D01*
Y417280D01*
X753468Y417936D01*
X752156D01*
X751500Y417280D01*
X755436D02*
X756092Y417936D01*
X757404D01*
X758060Y417280D01*
Y414656D01*
X757404Y414000D01*
X756092D01*
X755436Y414656D01*
Y417280D01*
X751500Y524000D02*
X752812D01*
X752156D01*
Y527936D01*
X751500Y527280D01*
X595624Y414000D02*
X593000D01*
X595624Y416624D01*
Y417280D01*
X594968Y417936D01*
X593656D01*
X593000Y417280D01*
X596936D02*
X597592Y417936D01*
X598904D01*
X599560Y417280D01*
Y414656D01*
X598904Y414000D01*
X597592D01*
X596936Y414656D01*
Y417280D01*
X597000Y524000D02*
X598312D01*
X597656D01*
Y527936D01*
X597000Y527280D01*
M02*
