M48
;Layer_Color=9474304
;FILE_FORMAT=2:5
INCH,LZ
;TYPE=PLATED
T1F00S00C0.02800
T2F00S00C0.04331
T3F00S00C0.05118
T4F00S00C0.05906
T5F00S00C0.12835
T6F00S00C0.13780
%
T01
X0664Y0444
X06835Y0453
X07055Y04425
X07175Y04705
X0664Y047
X0611Y0471
T02
X0584Y0426
Y0436
Y0446
Y0456
Y0466
X0594
Y0456
Y0446
Y0436
Y0426
X0672Y04065
Y03965
X07415Y0426
Y0436
Y0446
Y0456
Y0466
X07515
Y0456
Y0446
Y0436
Y0426
Y0476
Y0486
Y0496
Y0506
Y0516
X07415
Y0506
Y0496
Y0486
Y0476
X0594
Y0486
Y0496
Y0506
Y0516
X0584
Y0506
Y0496
Y0486
Y0476
T03
X06255Y04075
X0633374
X0641248
X0649122
X0645689Y056941
X0656595
X06675
X0678406
X0689311
X0683858Y0580591
X0672953
X0662047
X0651142
T04
X065198Y05115
Y054902
X07145Y054902
Y05365
Y05115
T05
X0716693Y0575
X0618307
T06
X0589Y04035
X0746
Y05705
X0589
M30
